HIERARCHY
ROOT Hips
{
	OFFSET -3.958830 18.904000 13.208200
	CHANNELS 6 Xposition Yposition Zposition Zrotation Yrotation Xrotation 
	JOINT LHipJoint
	{
		OFFSET 0.000000 0.000000 0.000000
		CHANNELS 3 Zrotation Yrotation Xrotation
		JOINT LeftUpLeg
		{
			OFFSET 1.800000 -1.400000 0.085000
			CHANNELS 3 Zrotation Yrotation Xrotation
			JOINT LeftLeg
			{
				OFFSET 2.215000 -6.000000 0.000000
				CHANNELS 3 Zrotation Yrotation Xrotation
				JOINT LeftFoot
				{
					OFFSET 2.500000 -6.900000 0.000000
					CHANNELS 3 Zrotation Yrotation Xrotation
					JOINT LeftToeBase
					{
						OFFSET 0.200000 -0.500000 1.950000
						CHANNELS 3 Zrotation Yrotation Xrotation
						End Site
						{
							OFFSET 0.000000 0.000000 0.000000
						}
					}
				}
			}
		}
	}
	JOINT RHipJoint
	{
		OFFSET 0.000000 0.000000 0.000000
		CHANNELS 3 Zrotation Yrotation Xrotation
		JOINT RightUpLeg
		{
			OFFSET -1.800000 -1.400000 0.085000
			CHANNELS 3 Zrotation Yrotation Xrotation
			JOINT RightLeg
			{
				OFFSET -2.215000 -6.000000 0.000000
				CHANNELS 3 Zrotation Yrotation Xrotation
				JOINT RightFoot
				{
					OFFSET -2.500000 -6.900000 0.000000
					CHANNELS 3 Zrotation Yrotation Xrotation
					JOINT RightToeBase
					{
						OFFSET -0.200000 -0.500000 1.950000
						CHANNELS 3 Zrotation Yrotation Xrotation
						End Site
						{
							OFFSET 0.000000 0.000000 0.000000
						}
					}
				}
			}
		}
	}
	JOINT LowerBack
	{
		OFFSET 0.000000 0.000000 0.000000
		CHANNELS 3 Zrotation Yrotation Xrotation
		JOINT Spine
		{
			OFFSET -0.087000 1.940000 -0.288900
			CHANNELS 3 Zrotation Yrotation Xrotation
			JOINT Spine1
			{
				OFFSET 0.000000 1.950000 0.060000
				CHANNELS 3 Zrotation Yrotation Xrotation
				JOINT Neck
				{
					OFFSET 0.000000 0.000000 0.000000
					CHANNELS 3 Zrotation Yrotation Xrotation
					JOINT Neck1
					{
						OFFSET 0.000000 1.600000 0.340000
						CHANNELS 3 Zrotation Yrotation Xrotation
						JOINT Head
						{
							OFFSET 0.000000 1.667000 -0.240000
							CHANNELS 3 Zrotation Yrotation Xrotation
							End Site
							{
								OFFSET 0.000000 0.000000 0.000000
							}
						}
					}
				}
				JOINT LeftShoulder
				{
					OFFSET 0.000000 0.000000 0.000000
					CHANNELS 3 Zrotation Yrotation Xrotation
					JOINT LeftArm
					{
						OFFSET 2.700000 1.550000 -0.730000
						CHANNELS 3 Zrotation Yrotation Xrotation
						JOINT LeftForeArm
						{
							OFFSET 5.450000 0.000000 0.000000
							CHANNELS 3 Zrotation Yrotation Xrotation
							JOINT LeftHand
							{
								OFFSET 3.450000 0.000000 0.000000
								CHANNELS 3 Zrotation Yrotation Xrotation
								JOINT LeftHandIndex1
								{
									OFFSET 0.750000 0.000000 0.000000
									CHANNELS 3 Zrotation Yrotation Xrotation
									End Site
									{
										OFFSET 0.000000 0.000000 0.000000
									}
								}
							}
						}
					}
				}
				JOINT RightShoulder
				{
					OFFSET 0.000000 0.000000 0.000000
					CHANNELS 3 Zrotation Yrotation Xrotation
					JOINT RightArm
					{
						OFFSET -2.700000 1.550000 -0.730000
						CHANNELS 3 Zrotation Yrotation Xrotation
						JOINT RightForeArm
						{
							OFFSET -5.450000 0.000000 0.000000
							CHANNELS 3 Zrotation Yrotation Xrotation
							JOINT RightHand
							{
								OFFSET -3.450000 0.000000 0.000000
								CHANNELS 3 Zrotation Yrotation Xrotation
								JOINT RightHandIndex1
								{
									OFFSET -0.750000 0.000000 0.000000
									CHANNELS 3 Zrotation Yrotation Xrotation
									End Site
									{
										OFFSET 0.000000 0.000000 0.000000
									}
								}
							}
						}
					}
				}
			}
		}
	}
}
MOTION
Frames: 8
Frame Time: 0.016667
0.466620 16.252150 -0.003320 -0.700539 42.449276 2.746262 -15.101213 11.996670 2.963177 5.397714 -2.765896 -18.624158 -6.634971 3.351312 2.446985 -0.780472 3.319353 3.650284 0.348930 0.021520 0.376340 18.396524 -11.696790 2.459515 -8.311094 0.143289 -5.475071 2.102149 -4.070998 8.446926 -0.103366 -4.301029 2.937806 0.304460 0.559800 0.297390 -4.976690 1.427365 -6.853484 12.356996 4.689081 2.422416 -2.846501 4.383336 9.071912 1.654417 -2.450386 -7.180916 -2.934555 3.591365 21.770947 -6.574340 4.936180 -0.715890 -17.408299 -0.235245 2.570739 -40.373581 -17.217590 8.577602 106.930585 -57.940913 -72.353589 -4.124082 2.212812 0.035940 0.541520 -0.376650 0.169220 14.345773 4.657984 4.316066 44.411967 18.994301 2.110958 -104.899116 48.842713 -64.870611 1.709374 -1.402687 -0.324100 0.148830 -0.024950 -0.176840 
0.488290 16.247710 0.003280 -0.687159 43.717077 2.629607 -15.111117 11.952354 2.954306 5.253420 -2.774468 -18.511000 -6.704390 3.332157 2.339606 -0.789154 3.321238 3.652436 0.374180 0.059590 0.382170 18.394475 -11.713155 2.462867 -8.308316 0.082569 -4.999546 2.158207 -4.107356 8.433807 -0.116621 -4.379275 2.909961 0.336350 0.568610 0.301890 -5.009670 1.521249 -6.842277 12.269951 4.857489 2.243299 -2.907898 4.541678 9.674982 1.774775 -2.367543 -7.229961 -2.763170 3.573743 21.724332 -6.564520 4.870750 -0.609940 -17.217469 -0.876443 2.576706 -40.043029 -18.795677 8.855669 108.634573 -54.461360 -70.811998 -4.157102 2.446399 0.014180 0.557200 -0.384040 0.181420 13.989854 5.311104 4.384860 43.599566 19.980542 1.924387 -107.694210 44.133905 -63.532229 1.734039 -1.690733 -0.319260 0.150920 -0.036830 -0.170320 
0.506390 16.244330 0.010450 -0.649551 44.756965 2.520739 -15.118747 11.912176 2.942844 5.090821 -2.775145 -18.333373 -6.715744 3.303416 2.220514 -0.799305 3.323811 3.656821 0.399930 0.097290 0.388250 18.393600 -11.727359 2.471989 -8.345251 0.031687 -4.535385 2.260937 -4.144577 8.349728 -0.130212 -4.456764 2.882936 0.369730 0.579840 0.305240 -5.041165 1.609640 -6.837493 12.229543 5.002574 2.122208 -3.097174 4.701188 10.320430 1.928781 -2.350293 -7.338876 -2.700009 3.655158 21.667728 -6.511310 4.818930 -0.506690 -16.622192 -1.470531 2.581613 -39.662066 -20.227327 9.014316 109.923328 -51.067531 -68.765874 -4.177310 2.622068 -0.006560 0.573020 -0.392040 0.195340 13.170097 5.962899 4.505596 42.744611 20.992845 1.783829 -109.857648 40.082526 -61.783895 1.735773 -1.889558 -0.316920 0.156790 -0.048880 -0.163930 
0.520350 16.242280 0.017120 -0.572828 45.670817 2.414636 -15.127423 11.880570 2.932526 4.909728 -2.771896 -18.141444 -6.709165 3.277561 2.130514 -0.813675 3.326795 3.659760 0.426350 0.136620 0.395750 18.390222 -11.737908 2.482298 -8.420057 -0.013969 -4.087697 2.400936 -4.191353 8.265852 -0.144175 -4.531243 2.857050 0.404390 0.590450 0.307070 -5.063459 1.677956 -6.837212 12.190485 5.105866 2.093051 -3.419502 4.851712 10.970367 2.146397 -2.349845 -7.468989 -2.669783 3.791236 21.606631 -6.453790 4.792050 -0.535130 -15.744049 -1.996757 2.538015 -39.047576 -21.567384 9.098157 110.704950 -48.009400 -66.394288 -4.190059 2.747269 -0.023880 0.587670 -0.398580 0.207550 11.943041 6.535776 4.655573 41.812763 21.953028 1.678514 -111.326476 36.727068 -59.821916 1.725854 -2.029439 -0.316130 0.166560 -0.059290 -0.159010 
0.530720 16.241500 0.023990 -0.481573 46.439907 2.368009 -15.136794 11.858507 2.926693 4.752678 -2.775456 -18.019856 -6.712513 3.260673 2.085025 -0.830075 3.338376 3.659905 0.445210 0.165850 0.396960 18.384990 -11.743131 2.490190 -8.459608 -0.042912 -3.727832 2.492353 -4.225588 8.215421 -0.151691 -4.598533 2.833560 0.434730 0.607460 0.313400 -5.072309 1.719636 -6.836428 12.136987 5.181019 2.095706 -3.803175 4.999352 11.501382 2.398219 -2.367838 -7.582474 -2.672593 3.986322 21.474706 -6.456130 4.828830 -0.408800 -14.730433 -2.361194 2.450794 -38.147784 -22.685115 9.135041 111.162182 -45.425073 -64.056909 -4.210349 2.842797 -0.043650 0.609110 -0.410080 0.218130 10.500071 6.935196 4.774524 40.577714 22.751403 1.611735 -112.257565 34.033657 -57.817486 1.709778 -2.137681 -0.317190 0.173830 -0.063240 -0.154480 
0.536800 16.241400 0.031140 -0.422332 47.032582 2.314337 -15.145607 11.848798 2.921837 4.658124 -2.778206 -17.967542 -6.699544 3.255782 2.118234 -0.847649 3.352357 3.658502 0.459720 0.189220 0.396600 18.378794 -11.743525 2.497858 -8.452398 -0.064337 -3.434167 2.537353 -4.244936 8.174961 -0.155812 -4.652184 2.815189 0.461310 0.625690 0.319480 -5.074712 1.733651 -6.838066 12.129135 5.202166 2.175855 -4.237549 5.121434 11.913390 2.638609 -2.440120 -7.665845 -2.774064 4.261891 21.330890 -6.450080 4.903180 -0.292200 -13.593628 -2.547099 2.342696 -36.939947 -23.456838 9.040928 111.391700 -43.349770 -61.953030 -4.232823 2.912230 -0.060880 0.630450 -0.421870 0.226490 8.937758 7.179077 4.827888 38.954780 23.466325 1.612583 -112.563913 32.036441 -55.794026 1.693734 -2.216003 -0.320140 0.181990 -0.064350 -0.150770 
0.540580 16.241320 0.038350 -0.369299 47.505439 2.267150 -15.155938 11.851839 2.920352 4.598344 -2.776856 -17.931440 -6.692590 3.256599 2.149298 -0.865677 3.372182 3.656494 0.466280 0.203610 0.390400 18.369947 -11.733098 2.504979 -8.444958 -0.083648 -3.168913 2.601635 -4.266963 8.117464 -0.157774 -4.697751 2.802133 0.482590 0.647070 0.323210 -5.064146 1.706807 -6.843416 12.119042 5.133592 2.339535 -4.658755 5.184986 12.162834 2.851453 -2.572611 -7.708596 -2.987032 4.630126 21.166853 -6.450730 5.042110 -0.184650 -12.429610 -2.548082 2.219394 -35.478364 -23.850002 8.806749 111.446113 -41.727089 -60.092568 -4.258365 2.958682 -0.073920 0.651770 -0.434700 0.233690 7.382524 7.268516 4.800372 36.870678 24.018620 1.615304 -112.228679 30.836739 -53.927015 1.678149 -2.263616 -0.327640 0.194110 -0.060570 -0.148070 
0.542480 16.240340 0.046300 -0.351605 47.853086 2.222618 -15.166042 11.863512 2.922241 4.600016 -2.773369 -17.916573 -6.705698 3.263251 2.173034 -0.877351 3.395717 3.653474 0.471630 0.214060 0.386580 18.360375 -11.717395 2.510431 -8.387628 -0.099708 -2.952490 2.621284 -4.276112 8.075681 -0.159723 -4.729322 2.793806 0.498290 0.667670 0.329310 -5.047584 1.656317 -6.850302 12.125088 5.004877 2.568911 -5.042359 5.204921 12.200751 3.027784 -2.767851 -7.673594 -3.308696 5.114206 20.971599 -6.433050 5.270650 -0.097180 -11.389993 -2.331727 2.071795 -33.764992 -23.850611 8.460082 111.378158 -40.636677 -58.587467 -4.285135 2.989330 -0.084780 0.670950 -0.444330 0.240820 5.998013 7.186075 4.654626 34.333080 24.453908 1.653202 -111.364263 30.361124 -52.257182 1.667999 -2.288530 -0.332980 0.204610 -0.057680 -0.144940 
